<svg width="226" height="228" viewBox="0 0 226 228" fill="none" xmlns="http://www.w3.org/2000/svg">
<path d="M112.733 228C174.994 228 225.467 176.96 225.467 114C225.467 51.0395 174.994 0 112.733 0C50.4724 0 0 51.0395 0 114C0 176.96 50.4724 228 112.733 228Z" fill="#001010"/>
<path d="M77.0112 178.106V128.656H97.9163V161.386H128.63C133.909 161.505 139.02 159.523 142.837 155.875C146.655 152.227 148.867 147.212 148.988 141.933C148.928 139.241 148.332 136.588 147.235 134.128C146.139 131.669 144.563 129.452 142.601 127.608C140.639 125.764 138.329 124.329 135.807 123.386C133.284 122.444 130.599 122.013 127.908 122.12H57.2563L50.543 106.314H124.8C159.958 106.314 169.714 128.483 169.714 143.03C169.714 163.025 154.26 178.106 131.904 178.106H77.0112ZM149.011 104.014C145.513 102.66 141.891 101.651 138.196 101.002C141.177 97.8051 142.826 93.5924 142.81 89.2219C142.81 80.1374 135.172 73.044 125.17 73.044H97.9163V99.872H77.0112V56.3291H130.449C148.436 56.3291 163.35 69.961 163.35 87.9527C163.444 95.1464 160.801 102.107 155.958 107.426C153.74 106.1 151.417 104.958 149.011 104.014Z" fill="white"/>
</svg>
